<svg width="40" height="40" viewBox="0 0 40 40" fill="none" xmlns="http://www.w3.org/2000/svg">
<path d="M20.9884 38.7633L20.97 38.7666L20.8517 38.825L20.8184 38.8316L20.795 38.825L20.6767 38.7666C20.6589 38.7611 20.6456 38.7639 20.6367 38.775L20.63 38.7916L20.6017 39.505L20.61 39.5383L20.6267 39.56L20.8 39.6833L20.825 39.69L20.845 39.6833L21.0184 39.56L21.0384 39.5333L21.045 39.505L21.0167 38.7933C21.0123 38.7755 21.0028 38.7655 20.9884 38.7633ZM21.43 38.575L21.4084 38.5783L21.1 38.7333L21.0834 38.75L21.0784 38.7683L21.1084 39.485L21.1167 39.505L21.13 39.5166L21.465 39.6716C21.4862 39.6772 21.5023 39.6728 21.5134 39.6583L21.52 39.635L21.4634 38.6116C21.4578 38.5916 21.4467 38.5794 21.43 38.575ZM20.2384 38.5783C20.231 38.5739 20.2223 38.5724 20.2139 38.5743C20.2055 38.5761 20.1981 38.5812 20.1934 38.5883L20.1834 38.6116L20.1267 39.635C20.1278 39.655 20.1373 39.6683 20.155 39.675L20.18 39.6716L20.515 39.5166L20.5317 39.5033L20.5384 39.485L20.5667 38.7683L20.5617 38.7483L20.545 38.7316L20.2384 38.5783Z" fill="#0004FF"/>
<path d="M11.7067 3.85002C12.9589 4.27258 14.1498 4.85876 15.2484 5.59335C16.8009 5.19598 18.3975 4.99662 20.0001 5.00002C21.6551 5.00002 23.2517 5.20669 24.7484 5.59169C25.8466 4.85781 27.0369 4.27219 28.2884 3.85002C29.4501 3.45502 31.1051 2.81502 32.0884 3.90336C32.7551 4.64336 32.9217 5.88336 33.0401 6.83002C33.1734 7.88669 33.2051 9.26335 32.8551 10.63C34.1934 12.3584 35.0001 14.42 35.0001 16.6667C35.0001 20.07 33.1567 23.025 30.4284 25.0717C29.1147 26.0432 27.6586 26.8056 26.1117 27.3317C26.4684 28.1484 26.6667 29.0517 26.6667 30V35C26.6667 35.442 26.4911 35.866 26.1786 36.1785C25.866 36.4911 25.4421 36.6667 25.0001 36.6667H15.0001C14.558 36.6667 14.1341 36.4911 13.8215 36.1785C13.509 35.866 13.3334 35.442 13.3334 35V33.3484C11.7417 33.5434 10.4067 33.37 9.27172 32.8884C8.08506 32.385 7.25839 31.605 6.63672 30.8584C6.04672 30.1517 5.40339 28.5584 4.47339 28.2484C4.26568 28.1792 4.07363 28.0698 3.9082 27.9264C3.74277 27.783 3.60721 27.6085 3.50924 27.4127C3.31139 27.0173 3.27871 26.5595 3.41839 26.14C3.55807 25.7205 3.85867 25.3737 4.25406 25.1759C4.64945 24.978 5.10724 24.9453 5.52672 25.085C6.63672 25.455 7.36006 26.255 7.85506 26.8984C8.65506 27.9317 9.30506 29.2817 10.5717 29.82C11.0934 30.0417 11.8584 30.1867 13.0551 30.0234L13.3334 29.9667C13.3372 29.0597 13.5261 28.1631 13.8884 27.3317C12.3415 26.8056 10.8854 26.0432 9.57172 25.0717C6.84339 23.025 5.00006 20.0717 5.00006 16.6667C5.00006 14.4234 5.80506 12.3634 7.14006 10.6367C6.79006 9.27002 6.82006 7.89002 6.95339 6.83169L6.96172 6.76835C7.08339 5.79835 7.22506 4.65669 7.90506 3.90336C8.88839 2.81502 10.5451 3.45669 11.7051 3.85169L11.7067 3.85002Z" fill="#0004FF"/>
</svg>
