<svg width="40" height="40" viewBox="0 0 40 40" fill="none" xmlns="http://www.w3.org/2000/svg">
<path d="M20.9884 38.7633L20.97 38.7666L20.8517 38.825L20.8184 38.8316L20.795 38.825L20.6767 38.7666C20.6589 38.7611 20.6456 38.7639 20.6367 38.775L20.63 38.7916L20.6017 39.505L20.61 39.5383L20.6267 39.56L20.8 39.6833L20.825 39.69L20.845 39.6833L21.0184 39.56L21.0384 39.5333L21.045 39.505L21.0167 38.7933C21.0123 38.7755 21.0028 38.7655 20.9884 38.7633ZM21.43 38.575L21.4084 38.5783L21.1 38.7333L21.0834 38.75L21.0784 38.7683L21.1084 39.485L21.1167 39.505L21.13 39.5166L21.465 39.6716C21.4862 39.6772 21.5023 39.6728 21.5134 39.6583L21.52 39.635L21.4634 38.6116C21.4578 38.5916 21.4467 38.5794 21.43 38.575ZM20.2384 38.5783C20.231 38.5739 20.2223 38.5724 20.2139 38.5743C20.2055 38.5761 20.1981 38.5812 20.1934 38.5883L20.1834 38.6116L20.1267 39.635C20.1278 39.655 20.1373 39.6683 20.155 39.675L20.18 39.6716L20.515 39.5166L20.5317 39.5033L20.5384 39.485L20.5667 38.7683L20.5617 38.7483L20.545 38.7316L20.2384 38.5783Z" fill="#0004FF"/>
<path d="M26.6667 5C28.8768 5 30.9964 5.87797 32.5592 7.44078C34.122 9.00358 35 11.1232 35 13.3333V26.6667C35 28.8768 34.122 30.9964 32.5592 32.5592C30.9964 34.122 28.8768 35 26.6667 35H13.3333C11.1232 35 9.00358 34.122 7.44078 32.5592C5.87797 30.9964 5 28.8768 5 26.6667V13.3333C5 11.1232 5.87797 9.00358 7.44078 7.44078C9.00358 5.87797 11.1232 5 13.3333 5H26.6667ZM20 13.3333C18.2319 13.3333 16.5362 14.0357 15.286 15.286C14.0357 16.5362 13.3333 18.2319 13.3333 20C13.3333 21.7681 14.0357 23.4638 15.286 24.714C16.5362 25.9643 18.2319 26.6667 20 26.6667C21.7681 26.6667 23.4638 25.9643 24.714 24.714C25.9643 23.4638 26.6667 21.7681 26.6667 20C26.6667 18.2319 25.9643 16.5362 24.714 15.286C23.4638 14.0357 21.7681 13.3333 20 13.3333ZM20 16.6667C20.8841 16.6667 21.7319 17.0179 22.357 17.643C22.9821 18.2681 23.3333 19.1159 23.3333 20C23.3333 20.8841 22.9821 21.7319 22.357 22.357C21.7319 22.9821 20.8841 23.3333 20 23.3333C19.1159 23.3333 18.2681 22.9821 17.643 22.357C17.0179 21.7319 16.6667 20.8841 16.6667 20C16.6667 19.1159 17.0179 18.2681 17.643 17.643C18.2681 17.0179 19.1159 16.6667 20 16.6667ZM27.5 10.8333C27.058 10.8333 26.634 11.0089 26.3215 11.3215C26.0089 11.634 25.8333 12.058 25.8333 12.5C25.8333 12.942 26.0089 13.366 26.3215 13.6785C26.634 13.9911 27.058 14.1667 27.5 14.1667C27.942 14.1667 28.366 13.9911 28.6785 13.6785C28.9911 13.366 29.1667 12.942 29.1667 12.5C29.1667 12.058 28.9911 11.634 28.6785 11.3215C28.366 11.0089 27.942 10.8333 27.5 10.8333Z" fill="#0004FF"/>
</svg>
