<svg width="40" height="40" viewBox="0 0 40 40" fill="none" xmlns="http://www.w3.org/2000/svg">
<path fill-rule="evenodd" clip-rule="evenodd" d="M32.3536 20L32.3537 22.1408C33.369 22.4826 34.3092 22.9997 35.1273 23.666L37.0789 22.5944L40 27.4056L38.0496 28.4765C38.147 28.9791 38.1959 29.489 38.1957 30C38.1957 30.5203 38.1455 31.0295 38.0496 31.5234L40 32.5943L37.0789 37.4056L35.1273 36.334C34.3092 37.0003 33.369 37.5173 32.3537 37.8591V40H26.5115V37.8591C25.4962 37.5174 24.5559 37.0004 23.7379 36.3341L21.7863 37.4057L18.8652 32.5944L20.8156 31.5234C20.7182 31.0209 20.6693 30.511 20.6695 30C20.6695 29.4797 20.7197 28.9704 20.8156 28.4764L18.8652 27.4056L21.7863 22.5944L23.7378 23.666C24.5559 22.9996 25.4962 22.4826 26.5115 22.1408V20H32.3536ZM18.4025 18C20.3184 18 22.1205 18.4774 23.691 19.3171C19.6143 21.3062 16.8252 25.3433 16.8252 30C16.8252 32.1857 17.4397 34.2348 18.5132 36H0V28.8C0 22.9844 4.69934 18.2424 10.5863 18.009L11.0415 18H18.4025ZM29.4326 26.6666C27.4967 26.6666 25.9273 28.1591 25.9273 30C25.9273 31.8409 27.4968 33.3333 29.4326 33.3333C31.3685 33.3333 32.9378 31.8408 32.9378 30C32.9378 28.159 31.3685 26.6666 29.4326 26.6666ZM14.722 0C18.7874 0 22.083 3.13406 22.083 7.00003C22.083 10.7371 19.0034 13.7902 15.1259 13.9896L14.722 14C10.6566 14 7.36103 10.8659 7.36103 7.00003C7.36103 3.26287 10.4406 0.209719 14.3182 0.0103125L14.722 0Z" fill="#0004FF"/>
</svg>
