<svg width="44" height="35" viewBox="0 0 44 35" fill="none" xmlns="http://www.w3.org/2000/svg">
<path d="M22 0C23.2169 0 24.2 0.977539 24.2 2.1875V6.5625H32.45C35.1863 6.5625 37.4 8.76367 37.4 11.4844V30.0781C37.4 32.7988 35.1863 35 32.45 35H11.55C8.81375 35 6.6 32.7988 6.6 30.0781V11.4844C6.6 8.76367 8.81375 6.5625 11.55 6.5625H19.8V2.1875C19.8 0.977539 20.7831 0 22 0ZM14.3 26.25C13.695 26.25 13.2 26.7422 13.2 27.3438C13.2 27.9453 13.695 28.4375 14.3 28.4375H16.5C17.105 28.4375 17.6 27.9453 17.6 27.3438C17.6 26.7422 17.105 26.25 16.5 26.25H14.3ZM20.9 26.25C20.295 26.25 19.8 26.7422 19.8 27.3438C19.8 27.9453 20.295 28.4375 20.9 28.4375H23.1C23.705 28.4375 24.2 27.9453 24.2 27.3438C24.2 26.7422 23.705 26.25 23.1 26.25H20.9ZM27.5 26.25C26.895 26.25 26.4 26.7422 26.4 27.3438C26.4 27.9453 26.895 28.4375 27.5 28.4375H29.7C30.305 28.4375 30.8 27.9453 30.8 27.3438C30.8 26.7422 30.305 26.25 29.7 26.25H27.5ZM18.15 17.5C18.15 16.7748 17.8603 16.0793 17.3445 15.5665C16.8288 15.0537 16.1293 14.7656 15.4 14.7656C14.6707 14.7656 13.9712 15.0537 13.4555 15.5665C12.9397 16.0793 12.65 16.7748 12.65 17.5C12.65 18.2252 12.9397 18.9207 13.4555 19.4335C13.9712 19.9463 14.6707 20.2344 15.4 20.2344C16.1293 20.2344 16.8288 19.9463 17.3445 19.4335C17.8603 18.9207 18.15 18.2252 18.15 17.5ZM28.6 20.2344C29.3293 20.2344 30.0288 19.9463 30.5445 19.4335C31.0603 18.9207 31.35 18.2252 31.35 17.5C31.35 16.7748 31.0603 16.0793 30.5445 15.5665C30.0288 15.0537 29.3293 14.7656 28.6 14.7656C27.8707 14.7656 27.1712 15.0537 26.6555 15.5665C26.1397 16.0793 25.85 16.7748 25.85 17.5C25.85 18.2252 26.1397 18.9207 26.6555 19.4335C27.1712 19.9463 27.8707 20.2344 28.6 20.2344ZM3.3 15.3125H4.4V28.4375H3.3C1.47812 28.4375 0 26.9678 0 25.1562V18.5938C0 16.7822 1.47812 15.3125 3.3 15.3125ZM40.7 15.3125C42.5219 15.3125 44 16.7822 44 18.5938V25.1562C44 26.9678 42.5219 28.4375 40.7 28.4375H39.6V15.3125H40.7Z" fill="#0004FF"/>
</svg>
