<svg width="40" height="40" viewBox="0 0 40 40" fill="none" xmlns="http://www.w3.org/2000/svg">
<path fill-rule="evenodd" clip-rule="evenodd" d="M35.4343 25.6457H20.74C22.4073 25.4972 23.9533 24.712 25.0568 23.4533C26.1602 22.1946 26.7363 20.5592 26.6653 18.8868C26.5943 17.2144 25.8817 15.6336 24.6756 14.473C23.4694 13.3123 21.8625 12.661 20.1886 12.6543H15.3886C16.1062 11.6893 16.6195 10.5882 16.897 9.41812C17.1745 8.24805 17.2105 7.03368 17.0027 5.84923C16.7949 4.66479 16.3477 3.53518 15.6885 2.52946C15.0292 1.52373 14.1718 0.663041 13.1686 0L35.4343 0C36.4563 0.00151406 37.4359 0.408559 38.158 1.13175C38.8801 1.85494 39.2857 2.83515 39.2857 3.85714V21.7971C39.2857 23.9229 37.56 25.6486 35.4343 25.6486V25.6457ZM8.28 12.66C8.98352 12.6764 9.68322 12.5519 10.338 12.294C10.9927 12.0361 11.5893 11.6499 12.0927 11.1581C12.596 10.6663 12.996 10.0789 13.2691 9.43033C13.5421 8.78176 13.6828 8.08514 13.6828 7.38143C13.6828 6.67771 13.5421 5.9811 13.2691 5.33253C12.996 4.68395 12.596 4.09651 12.0927 3.60473C11.5893 3.11295 10.9927 2.72675 10.338 2.46884C9.68322 2.21092 8.98352 2.08649 8.28 2.10286C6.9013 2.13494 5.58986 2.70515 4.62612 3.69158C3.66237 4.67801 3.12281 6.00235 3.12281 7.38143C3.12281 8.7605 3.66237 10.0848 4.62612 11.0713C5.58986 12.0577 6.9013 12.6279 8.28 12.66ZM23.1229 19.1629C23.1229 17.54 21.8086 16.2257 20.1886 16.2257H8.28285C6.27479 16.2257 4.34896 17.0234 2.92905 18.4433C1.50913 19.8633 0.711426 21.7891 0.711426 23.7971V27.24C0.711426 28.76 1.94571 29.9914 3.46571 29.9914H3.95714L4.76285 37.4486C4.8382 38.1487 5.16948 38.7964 5.69309 39.2673C6.21671 39.7382 6.89579 39.9991 7.6 40H9.03428C9.72353 39.9997 10.3894 39.7503 10.9092 39.2977C11.4291 38.8451 11.7677 38.2198 11.8629 37.5371L14.0143 22.0971H20.1857C21.8057 22.0971 23.12 20.7829 23.12 19.1629H23.1229Z" fill="#0004FF"/>
</svg>
