<svg width="27" height="27" viewBox="0 0 27 27" fill="none" xmlns="http://www.w3.org/2000/svg">
<path d="M24.2083 26.25L15.0208 17.0625C14.2917 17.6458 13.4531 18.1076 12.5052 18.4479C11.5573 18.7882 10.5486 18.9583 9.47917 18.9583C6.82986 18.9583 4.58792 18.0406 2.75333 16.205C0.918751 14.3694 0.000972994 12.1275 7.71605e-07 9.47917C-0.000971451 6.83083 0.916806 4.58889 2.75333 2.75333C4.58986 0.917778 6.83181 0 9.47917 0C12.1265 0 14.369 0.917778 16.2065 2.75333C18.044 4.58889 18.9613 6.83083 18.9583 9.47917C18.9583 10.5486 18.7882 11.5573 18.4479 12.5052C18.1076 13.4531 17.6458 14.2917 17.0625 15.0208L26.25 24.2083L24.2083 26.25ZM9.47917 16.0417C11.3021 16.0417 12.8518 15.4039 14.1283 14.1283C15.4049 12.8528 16.0426 11.3031 16.0417 9.47917C16.0407 7.65528 15.4029 6.10604 14.1283 4.83146C12.8538 3.55688 11.304 2.91861 9.47917 2.91667C7.65431 2.91472 6.10507 3.55299 4.83146 4.83146C3.55785 6.10993 2.91958 7.65917 2.91667 9.47917C2.91375 11.2992 3.55202 12.8489 4.83146 14.1283C6.1109 15.4078 7.66014 16.0456 9.47917 16.0417Z" fill="#0004FF"/>
</svg>
