<svg width="40" height="40" viewBox="0 0 40 40" fill="none" xmlns="http://www.w3.org/2000/svg">
<path fill-rule="evenodd" clip-rule="evenodd" d="M32.9636 7.03652C33.1422 7.2152 33.382 7.65941 33.2771 8.70824C33.1737 9.74113 32.7512 11.1057 31.9611 12.7321C31.8656 12.9285 31.7674 13.1236 31.6665 13.3174V16.6229C34.7777 11.7796 35.8882 7.6041 34.1421 5.85801C32.382 4.09801 28.1536 5.24027 23.2611 8.40848L24.8922 9.3502C25.7153 8.84551 26.5107 8.40699 27.2681 8.03902C28.8944 7.24887 30.2589 6.82637 31.2918 6.72301C32.3407 6.61809 32.785 6.85793 32.9636 7.03652ZM31.6665 26.6829V23.3775C34.7777 28.2207 35.8882 32.3962 34.1421 34.1423C32.3814 35.9029 28.1507 34.7593 23.2561 31.5886L24.8871 30.647C25.712 31.153 26.5092 31.5926 27.2681 31.9613C28.8944 32.7514 30.2589 33.1739 31.2919 33.2773C32.3407 33.3822 32.785 33.1424 32.9636 32.9638C33.1422 32.7851 33.3821 32.3409 33.2771 31.2921C33.1738 30.2592 32.7513 28.8946 31.9611 27.2682C31.8656 27.0718 31.7674 26.8767 31.6665 26.6829ZM15.1128 30.647L16.7437 31.5886C11.8491 34.7593 7.6184 35.9029 5.85778 34.1423C4.11168 32.3962 5.22215 28.2208 8.33324 23.3776V26.6831C8.23245 26.8768 8.13429 27.0719 8.03879 27.2682C7.24864 28.8946 6.82614 30.2592 6.72278 31.2921C6.61785 32.3409 6.8577 32.7851 7.03629 32.9638C7.21496 33.1424 7.65918 33.3822 8.70801 33.2773C9.7409 33.1739 11.1054 32.7514 12.7318 31.9613C13.4907 31.5926 14.2879 31.153 15.1128 30.647ZM5.85778 5.85801C4.11168 7.6041 5.22215 11.7795 8.33324 16.6227V13.3171C8.23244 13.1235 8.13428 12.9284 8.03879 12.7321C7.24864 11.1057 6.82614 9.74113 6.72278 8.70824C6.61785 7.65941 6.8577 7.2152 7.03629 7.03652C7.21496 6.85793 7.65918 6.61809 8.70801 6.72301C9.7409 6.82637 11.1054 7.24879 12.7318 8.03902C13.4891 8.40692 14.2845 8.84543 15.1076 9.35012L16.7387 8.4084C11.8462 5.24027 7.61785 4.09801 5.85778 5.85801ZM19.9999 8.45012L29.9999 14.2236V25.7706L19.9999 31.5441L9.99989 25.7706V14.2236L19.9999 8.45012ZM26.6665 18.0698V23.8461L21.6665 26.7329V20.9565L26.6665 18.0698ZM18.3332 20.9565V26.7329L13.3332 23.8461V18.0698L18.3332 20.9565ZM19.9999 18.0697L15.0023 15.1843L19.9999 12.299L24.9975 15.1843L19.9999 18.0697Z" fill="#0004FF"/>
</svg>
