<svg width="40" height="40" viewBox="0 0 40 40" fill="none" xmlns="http://www.w3.org/2000/svg">
<path d="M31.6667 5C32.5507 5 33.3986 5.35119 34.0237 5.97631C34.6488 6.60143 35 7.44928 35 8.33333V31.6667C35 32.5507 34.6488 33.3986 34.0237 34.0237C33.3986 34.6488 32.5507 35 31.6667 35H8.33333C7.44928 35 6.60143 34.6488 5.97631 34.0237C5.35119 33.3986 5 32.5507 5 31.6667V8.33333C5 7.44928 5.35119 6.60143 5.97631 5.97631C6.60143 5.35119 7.44928 5 8.33333 5H31.6667ZM30.8333 30.8333V22C30.8333 20.559 30.2609 19.177 29.2419 18.1581C28.223 17.1391 26.841 16.5667 25.4 16.5667C23.9833 16.5667 22.3333 17.4333 21.5333 18.7333V16.8833H16.8833V30.8333H21.5333V22.6167C21.5333 21.3333 22.5667 20.2833 23.85 20.2833C24.4688 20.2833 25.0623 20.5292 25.4999 20.9668C25.9375 21.4043 26.1833 21.9978 26.1833 22.6167V30.8333H30.8333ZM11.4667 14.2667C12.2093 14.2667 12.9215 13.9717 13.4466 13.4466C13.9717 12.9215 14.2667 12.2093 14.2667 11.4667C14.2667 9.91667 13.0167 8.65 11.4667 8.65C10.7196 8.65 10.0032 8.94675 9.47498 9.47498C8.94675 10.0032 8.65 10.7196 8.65 11.4667C8.65 13.0167 9.91667 14.2667 11.4667 14.2667ZM13.7833 30.8333V16.8833H9.16667V30.8333H13.7833Z" fill="#0004FF"/>
</svg>
