<svg width="40" height="40" viewBox="0 0 40 40" fill="none" xmlns="http://www.w3.org/2000/svg">
<path d="M16.6666 24.9999L25.3166 19.9999L16.6666 14.9999V24.9999ZM35.9333 11.9499C36.1499 12.7333 36.2999 13.7833 36.3999 15.1166C36.5166 16.4499 36.5666 17.5999 36.5666 18.5999L36.6666 19.9999C36.6666 23.6499 36.3999 26.3333 35.9333 28.0499C35.5166 29.5499 34.5499 30.5166 33.0499 30.9333C32.2666 31.1499 30.8333 31.2999 28.6333 31.3999C26.4666 31.5166 24.4833 31.5666 22.6499 31.5666L19.9999 31.6666C13.0166 31.6666 8.66659 31.3999 6.94992 30.9333C5.44992 30.5166 4.48325 29.5499 4.06659 28.0499C3.84992 27.2666 3.69992 26.2166 3.59992 24.8833C3.48325 23.5499 3.43325 22.3999 3.43325 21.3999L3.33325 19.9999C3.33325 16.3499 3.59992 13.6666 4.06659 11.9499C4.48325 10.4499 5.44992 9.48325 6.94992 9.06659C7.73325 8.84992 9.16659 8.69992 11.3666 8.59992C13.5333 8.48325 15.5166 8.43325 17.3499 8.43325L19.9999 8.33325C26.9833 8.33325 31.3333 8.59992 33.0499 9.06659C34.5499 9.48325 35.5166 10.4499 35.9333 11.9499Z" fill="#0004FF"/>
</svg>
