<svg width="35" height="40" viewBox="0 0 35 40" fill="none" xmlns="http://www.w3.org/2000/svg">
<path d="M0 7.27273C0 5.34388 0.819442 3.49403 2.27806 2.13013C3.73667 0.766232 5.71498 0 7.77778 0H35V40H7.77778C5.71498 40 3.73667 39.2338 2.27806 37.8699C0.819442 36.506 0 34.6561 0 32.7273V7.27273ZM13.6189 7.27273H9.72222V10.9164H13.6189V7.27273ZM13.6189 12.7273H9.72222V16.3709H13.6189V12.7273ZM8.75 27.2727C7.46075 27.2727 6.22431 27.7516 5.31268 28.6041C4.40104 29.4565 3.88889 30.6126 3.88889 31.8182C3.88889 33.0237 4.40104 34.1799 5.31268 35.0323C6.22431 35.8847 7.46075 36.3636 8.75 36.3636H31.1111V27.2727H17.5V34.0909L13.6111 31.6455L9.72222 34.0909V27.2727H8.75Z" fill="#0004FF"/>
</svg>
